<svg width="66" height="58" viewBox="0 0 66 58" fill="none" xmlns="http://www.w3.org/2000/svg">
<g clip-path="url(#clip0_121_30)">
<path d="M45.375 21.75C45.375 24.6342 44.0712 27.4003 41.7504 29.4398C39.4297 31.4792 36.2821 32.625 33 32.625C29.7179 32.625 26.5703 31.4792 24.2496 29.4398C21.9288 27.4003 20.625 24.6342 20.625 21.75C20.625 18.8658 21.9288 16.0997 24.2496 14.0602C26.5703 12.0208 29.7179 10.875 33 10.875C36.2821 10.875 39.4297 12.0208 41.7504 14.0602C44.0712 16.0997 45.375 18.8658 45.375 21.75Z" fill="#4B8DA5"/>
<path fill-rule="evenodd" clip-rule="evenodd" d="M0 29C0 21.3087 3.47678 13.9325 9.66548 8.4939C15.8542 3.05535 24.2479 0 33 0C41.7521 0 50.1458 3.05535 56.3345 8.4939C62.5232 13.9325 66 21.3087 66 29C66 36.6913 62.5232 44.0675 56.3345 49.5061C50.1458 54.9447 41.7521 58 33 58C24.2479 58 15.8542 54.9447 9.66548 49.5061C3.47678 44.0675 0 36.6913 0 29ZM33 3.625C27.5623 3.62525 22.2353 4.97481 17.6319 7.51835C13.0286 10.0619 9.33604 13.696 6.97935 18.0025C4.62266 22.3089 3.69759 27.1126 4.31062 31.8607C4.92364 36.6088 7.04984 41.1083 10.4445 44.8413C13.3733 40.6942 19.8206 36.25 33 36.25C46.1794 36.25 52.6226 40.6906 55.5555 44.8413C58.9502 41.1083 61.0764 36.6088 61.6894 31.8607C62.3024 27.1126 61.3773 22.3089 59.0206 18.0025C56.664 13.696 52.9714 10.0619 48.3681 7.51835C43.7647 4.97481 38.4377 3.62525 33 3.625Z" fill="#4B8DA5"/>
</g>
<defs>
<clipPath id="clip0_121_30">
<rect width="66" height="58" fill="white"/>
</clipPath>
</defs>
</svg>
