<svg width="80" height="200" viewBox="0 0 214 214" fill="none" xmlns="http://www.w3.org/2000/svg">
<path d="M107 17.8333C95.2901 17.8333 83.6953 20.1397 72.8771 24.6208C62.0589 29.1018 52.2292 35.6698 43.9493 43.9497C27.2273 60.6716 17.833 83.3515 17.833 107C17.833 130.648 27.2273 153.328 43.9493 170.05C52.2292 178.33 62.0589 184.898 72.8771 189.379C83.6953 193.86 95.2901 196.167 107 196.167C130.648 196.167 153.328 186.772 170.05 170.05C186.772 153.328 196.166 130.648 196.166 107H178.333C178.333 125.919 170.818 144.063 157.44 157.44C144.062 170.818 125.918 178.333 107 178.333C88.0809 178.333 69.937 170.818 56.5594 157.44C43.1818 144.063 35.6663 125.919 35.6663 107C35.6663 88.0812 43.1818 69.9373 56.5594 56.5597C69.937 43.1821 88.0809 35.6667 107 35.6667V17.8333ZM167.455 26.75C165.85 26.7636 164.314 27.4035 163.175 28.5333L152.296 39.3225L174.588 61.6142L185.466 50.825C187.785 48.5067 187.785 44.5833 185.466 42.3542L171.645 28.5333C170.486 27.3742 168.971 26.75 167.455 26.75ZM145.966 45.6533L80.2497 111.458V133.75H102.541L168.257 67.945L145.966 45.6533Z" fill="#4B8DA5"/>
</svg>
