<svg width="68" height="58" viewBox="0 0 68 58" fill="none" xmlns="http://www.w3.org/2000/svg">
<path d="M20.3944 46.4C16.6554 46.4 13.6302 49.01 13.6302 52.2C13.6302 55.39 16.6554 58 20.3944 58C24.1334 58 27.1925 55.39 27.1925 52.2C27.1925 49.01 24.1334 46.4 20.3944 46.4ZM0 2.9C0 4.495 1.52958 5.8 3.39906 5.8H6.79813L19.0348 27.811L14.446 34.887C11.9647 38.773 15.2278 43.5 20.3944 43.5H57.7841C59.6536 43.5 61.1832 42.195 61.1832 40.6C61.1832 39.005 59.6536 37.7 57.7841 37.7H20.3944L24.1334 31.9H49.4564C52.0057 31.9 54.2491 30.711 55.4047 28.913L67.5734 10.092C67.8599 9.65244 68.0068 9.15667 67.9998 8.65376C67.9927 8.15086 67.8318 7.65824 67.5331 7.22466C67.2343 6.79108 66.8081 6.43157 66.2965 6.18169C65.7849 5.93182 65.2057 5.80025 64.6162 5.8H14.3101L12.0327 1.653C11.7595 1.15799 11.3267 0.739621 10.7849 0.446874C10.2431 0.154128 9.61482 -0.000878296 8.97353 3.74345e-06H3.39906C1.52958 3.74345e-06 0 1.305 0 2.9V2.9ZM54.385 46.4C50.6461 46.4 47.6209 49.01 47.6209 52.2C47.6209 55.39 50.6461 58 54.385 58C58.124 58 61.1832 55.39 61.1832 52.2C61.1832 49.01 58.124 46.4 54.385 46.4Z" fill="#4B8DA5"/>
</svg>
